<svg width="24" height="24" viewBox="0 0 24 24" fill="none" xmlns="http://www.w3.org/2000/svg">
<g clip-path="url(#clip0_519_1582)">
<path fill-rule="evenodd" clip-rule="evenodd" d="M12 0C11.8757 0 11.7513 0.0425563 11.6534 0.127669L0.166374 10.1071C0.0514047 10.2069 0 10.334 0 10.4589C0 10.707 0.202756 10.9463 0.513018 10.9463L3.55221 10.9463V21.7494C3.55221 22.9924 4.49774 24 5.66416 24H13.4784V18.5985C13.4784 17.977 13.9511 17.4732 14.5343 17.4732H16.4351C17.0183 17.4732 17.4911 17.977 17.4911 18.5985V24H18.3358C19.5023 24 20.4478 22.9924 20.4478 21.7494V10.9463L23.487 10.9463C23.9535 10.9463 24.1769 10.4053 23.8336 10.107L12.3466 0.12767C12.2487 0.0425566 12.1243 0 12 0ZM6.29774 13.5346C5.71453 13.5346 5.24177 14.0384 5.24177 14.6599V16.798C5.24177 17.4194 5.71453 17.9233 6.29774 17.9233H9.25447C9.83768 17.9233 10.3104 17.4194 10.3104 16.798V14.6599C10.3104 14.0384 9.83768 13.5346 9.25447 13.5346H6.29774Z" fill="#A9F7CB"/>
</g>
<defs>
<clipPath id="clip0_519_1582">
<rect width="24" height="24" fill="white"/>
</clipPath>
</defs>
</svg>
