<svg width="24" height="24" viewBox="0 0 24 24" fill="none" xmlns="http://www.w3.org/2000/svg">
<g clip-path="url(#clip0_10_149)">
<path d="M12 0C11.0395 0 10.2609 0.778618 10.2609 1.73913V2.43478C6.29176 3.24049 3.30437 6.74966 3.30437 10.9565V12.9155C3.30437 14.5006 3.08765 16.0783 2.66026 17.6047L2.08698 19.6522H7.65219C7.65219 22.0534 9.59878 24 12 24C14.4013 24 16.3478 22.0534 16.3478 19.6522H21.9131L21.3398 17.6047C20.9124 16.0783 20.6957 14.5006 20.6957 12.9155V10.9565C20.6957 6.74966 17.7083 3.24049 13.7391 2.43478V1.73913C13.7391 0.778618 12.9605 0 12 0Z" fill="#BAFFD8"/>
</g>
<defs>
<clipPath id="clip0_10_149">
<rect width="24" height="24" fill="white"/>
</clipPath>
</defs>
</svg>
